<svg width="127" height="24" viewBox="0 0 127 24" fill="none" xmlns="http://www.w3.org/2000/svg">
<path d="M1.162 0.933998H10.07C12.518 0.933998 14.4107 1.512 15.748 2.668C17.0173 3.73333 17.652 5.10467 17.652 6.782C17.652 8.02867 17.3007 9.094 16.598 9.978C15.918 10.862 14.9547 11.4853 13.708 11.848C14.9547 12.0973 15.986 12.664 16.802 13.548C17.618 14.4093 18.026 15.52 18.026 16.88C18.026 19.6 16.6773 21.4587 13.98 22.456C12.96 22.8187 11.668 23 10.104 23H1.162V0.933998ZM10.002 19.498C11.294 19.498 12.2233 19.2373 12.79 18.716C13.3793 18.1947 13.674 17.5033 13.674 16.642C13.674 15.7807 13.368 15.0893 12.756 14.568C12.1667 14.024 11.2487 13.752 10.002 13.752H5.174V19.498H10.002ZM5.174 10.25H9.9C11.1013 10.25 12.008 9.98933 12.62 9.468C13.232 8.94667 13.538 8.244 13.538 7.36C13.538 6.45333 13.232 5.73933 12.62 5.218C12.0307 4.674 11.1353 4.402 9.934 4.402H5.174V10.25ZM33.4089 0.933998H38.4409L45.6829 23H41.4329L39.9029 18.24H31.7089L30.1449 23H25.8949L33.4089 0.933998ZM32.7289 15.214H38.9169L35.8569 5.728L32.7289 15.214ZM54.0121 19.532L65.6741 4.64L54.0121 4.606V0.933998H70.7061V4.368L59.0781 19.294L70.7061 19.328V23H54.0121V19.532ZM86.2749 0.933998H91.3069L98.5489 23H94.2989L92.7689 18.24H84.5749L83.0109 23H78.7609L86.2749 0.933998ZM85.5949 15.214H91.7829L88.7229 5.728L85.5949 15.214ZM123.946 7.7C123.946 9.264 123.504 10.6013 122.62 11.712C121.736 12.8227 120.467 13.5933 118.812 14.024L124.728 23H119.492L114.63 14.398H111.57V23H107.558V0.933998H115.718C118.325 0.933998 120.353 1.55733 121.804 2.804C123.232 4.00533 123.946 5.63733 123.946 7.7ZM115.344 11.712C116.817 11.712 117.928 11.3833 118.676 10.726C119.424 10.046 119.798 9.162 119.798 8.074C119.798 6.96333 119.458 6.07933 118.778 5.422C118.098 4.742 117.078 4.402 115.718 4.402H111.57V11.712H115.344Z" fill="#1F1D10"/>
<path d="M1.162 0.933998V0.183998H0.412V0.933998H1.162ZM15.748 2.668L15.2575 3.23546L15.2658 3.24248L15.748 2.668ZM16.598 9.978L16.0108 9.51126L16.0035 9.52072L16.598 9.978ZM13.708 11.848L13.4985 11.1279L13.5609 12.5834L13.708 11.848ZM16.802 13.548L16.2509 14.0568L16.2575 14.0638L16.802 13.548ZM13.98 22.456L14.2313 23.1627L14.2401 23.1595L13.98 22.456ZM1.162 23H0.412V23.75H1.162V23ZM12.79 18.716L12.2931 18.1543L12.2876 18.1591L12.2822 18.1641L12.79 18.716ZM12.756 14.568L12.2473 15.1191L12.2583 15.1292L12.2697 15.1389L12.756 14.568ZM5.174 13.752V13.002H4.424V13.752H5.174ZM5.174 19.498H4.424V20.248H5.174V19.498ZM5.174 10.25H4.424V11H5.174V10.25ZM12.62 9.468L12.1337 8.89707H12.1336L12.62 9.468ZM12.62 5.218L12.1113 5.7691L12.1223 5.77924L12.1337 5.78893L12.62 5.218ZM5.174 4.402V3.652H4.424V4.402H5.174ZM1.162 1.684H10.07V0.183998H1.162V1.684ZM10.07 1.684C12.407 1.684 14.101 2.23566 15.2575 3.2354L16.2385 2.1006C14.7204 0.78834 12.629 0.183998 10.07 0.183998V1.684ZM15.2658 3.24248C16.363 4.16331 16.902 5.32321 16.902 6.782H18.402C18.402 4.88612 17.6717 3.30335 16.2302 2.09352L15.2658 3.24248ZM16.902 6.782C16.902 7.87789 16.597 8.77395 16.0109 9.51132L17.1851 10.4447C18.0043 9.41405 18.402 8.17945 18.402 6.782H16.902ZM16.0035 9.52072C15.436 10.2585 14.6182 10.8021 13.4985 11.1279L13.9175 12.5681C15.2912 12.1685 16.4 11.4655 17.1925 10.4353L16.0035 9.52072ZM13.5609 12.5834C14.6617 12.8036 15.5486 13.2959 16.2509 14.0567L17.3531 13.0393C16.4234 12.0321 15.2476 11.3911 13.8551 11.1126L13.5609 12.5834ZM16.2575 14.0638C16.9221 14.7653 17.276 15.6817 17.276 16.88H18.776C18.776 15.3583 18.3139 14.0533 17.3465 13.0322L16.2575 14.0638ZM17.276 16.88C17.276 18.1118 16.9727 19.0946 16.4075 19.8735C15.8399 20.6557 14.9646 21.2923 13.7199 21.7525L14.2401 23.1595C15.6927 22.6223 16.8404 21.8309 17.6215 20.7545C18.405 19.6747 18.776 18.3682 18.776 16.88H17.276ZM13.7287 21.7493C12.8167 22.0736 11.6171 22.25 10.104 22.25V23.75C11.7189 23.75 13.1033 23.5637 14.2313 23.1627L13.7287 21.7493ZM10.104 22.25H1.162V23.75H10.104V22.25ZM1.912 23V0.933998H0.412V23H1.912ZM10.002 20.248C11.3633 20.248 12.5249 19.979 13.2978 19.2679L12.2822 18.1641C11.9218 18.4956 11.2247 18.748 10.002 18.748V20.248ZM13.2869 19.2777C14.0535 18.5996 14.424 17.6954 14.424 16.642H12.924C12.924 17.3113 12.7051 17.7897 12.2931 18.1543L13.2869 19.2777ZM14.424 16.642C14.424 15.5787 14.0347 14.6721 13.2424 13.9971L12.2697 15.1389C12.7013 15.5066 12.924 15.9826 12.924 16.642H14.424ZM13.2647 14.0169C12.4774 13.2901 11.3366 13.002 10.002 13.002V14.502C11.1607 14.502 11.856 14.7579 12.2473 15.1191L13.2647 14.0169ZM10.002 13.002H5.174V14.502H10.002V13.002ZM4.424 13.752V19.498H5.924V13.752H4.424ZM5.174 20.248H10.002V18.748H5.174V20.248ZM5.174 11H9.9V9.5H5.174V11ZM9.9 11C11.1944 11 12.3055 10.7212 13.1063 10.0389L12.1336 8.89707C11.7105 9.25751 11.0083 9.5 9.9 9.5V11ZM13.1063 10.0389C13.9036 9.35983 14.288 8.43905 14.288 7.36H12.788C12.788 8.04894 12.5604 8.5335 12.1337 8.89707L13.1063 10.0389ZM14.288 7.36C14.288 6.26504 13.9082 5.3301 13.1063 4.64707L12.1337 5.78893C12.5558 6.14856 12.788 6.64163 12.788 7.36H14.288ZM13.1287 4.6669C12.3456 3.94406 11.2322 3.652 9.934 3.652V5.152C11.0385 5.152 11.7157 5.40394 12.1113 5.7691L13.1287 4.6669ZM9.934 3.652H5.174V5.152H9.934V3.652ZM4.424 4.402V10.25H5.924V4.402H4.424ZM33.4089 0.933998V0.183998H32.872L32.6989 0.692238L33.4089 0.933998ZM38.4409 0.933998L39.1535 0.700124L38.9841 0.183998H38.4409V0.933998ZM45.6829 23V23.75H46.7184L46.3955 22.7661L45.6829 23ZM41.4329 23L40.7189 23.2295L40.8862 23.75H41.4329V23ZM39.9029 18.24L40.6169 18.0105L40.4496 17.49H39.9029V18.24ZM31.7089 18.24V17.49H31.1659L30.9964 18.0059L31.7089 18.24ZM30.1449 23V23.75H30.6879L30.8574 23.2341L30.1449 23ZM25.8949 23L25.1849 22.7582L24.8472 23.75H25.8949V23ZM32.7289 15.214L32.0166 14.9791L31.6918 15.964H32.7289V15.214ZM38.9169 15.214V15.964H39.9469L39.6307 14.9837L38.9169 15.214ZM35.8569 5.728L36.5707 5.49775L35.8647 3.30932L35.1446 5.49313L35.8569 5.728ZM33.4089 1.684H38.4409V0.183998H33.4089V1.684ZM37.7283 1.16787L44.9703 23.2339L46.3955 22.7661L39.1535 0.700124L37.7283 1.16787ZM45.6829 22.25H41.4329V23.75H45.6829V22.25ZM42.1469 22.7705L40.6169 18.0105L39.1889 18.4695L40.7189 23.2295L42.1469 22.7705ZM39.9029 17.49H31.7089V18.99H39.9029V17.49ZM30.9964 18.0059L29.4324 22.7659L30.8574 23.2341L32.4214 18.4741L30.9964 18.0059ZM30.1449 22.25H25.8949V23.75H30.1449V22.25ZM26.6048 23.2418L34.1188 1.17576L32.6989 0.692238L25.1849 22.7582L26.6048 23.2418ZM32.7289 15.964H38.9169V14.464H32.7289V15.964ZM39.6307 14.9837L36.5707 5.49775L35.1431 5.95825L38.2031 15.4443L39.6307 14.9837ZM35.1446 5.49313L32.0166 14.9791L33.4412 15.4489L36.5692 5.96287L35.1446 5.49313ZM54.0121 19.532L53.4216 19.0696L53.2621 19.2733V19.532H54.0121ZM65.6741 4.64L66.2646 5.10241L67.2105 3.89447L65.6763 3.89L65.6741 4.64ZM54.0121 4.606H53.2621V5.35382L54.0099 5.356L54.0121 4.606ZM54.0121 0.933998V0.183998H53.2621V0.933998H54.0121ZM70.7061 0.933998H71.4561V0.183998H70.7061V0.933998ZM70.7061 4.368L71.2977 4.82892L71.4561 4.62566V4.368H70.7061ZM59.0781 19.294L58.4864 18.8331L57.5466 20.0395L59.0759 20.044L59.0781 19.294ZM70.7061 19.328H71.4561V18.5802L70.7083 18.578L70.7061 19.328ZM70.7061 23V23.75H71.4561V23H70.7061ZM54.0121 23H53.2621V23.75H54.0121V23ZM54.6026 19.9944L66.2646 5.10241L65.0836 4.17759L53.4216 19.0696L54.6026 19.9944ZM65.6763 3.89L54.0143 3.856L54.0099 5.356L65.6719 5.39L65.6763 3.89ZM54.7621 4.606V0.933998H53.2621V4.606H54.7621ZM54.0121 1.684H70.7061V0.183998H54.0121V1.684ZM69.9561 0.933998V4.368H71.4561V0.933998H69.9561ZM70.1144 3.90708L58.4864 18.8331L59.6697 19.7549L71.2977 4.82892L70.1144 3.90708ZM59.0759 20.044L70.7039 20.078L70.7083 18.578L59.0803 18.544L59.0759 20.044ZM69.9561 19.328V23H71.4561V19.328H69.9561ZM70.7061 22.25H54.0121V23.75H70.7061V22.25ZM54.7621 23V19.532H53.2621V23H54.7621ZM86.2749 0.933998V0.183998H85.738L85.5649 0.692238L86.2749 0.933998ZM91.3069 0.933998L92.0195 0.700124L91.8501 0.183998H91.3069V0.933998ZM98.5489 23V23.75H99.5844L99.2615 22.7661L98.5489 23ZM94.2989 23L93.5849 23.2295L93.7522 23.75H94.2989V23ZM92.7689 18.24L93.4829 18.0105L93.3156 17.49H92.7689V18.24ZM84.5749 18.24V17.49H84.0319L83.8624 18.0059L84.5749 18.24ZM83.0109 23V23.75H83.5539L83.7234 23.2341L83.0109 23ZM78.7609 23L78.0509 22.7582L77.7132 23.75H78.7609V23ZM85.5949 15.214L84.8826 14.9791L84.5579 15.964H85.5949V15.214ZM91.7829 15.214V15.964H92.8129L92.4967 14.9837L91.7829 15.214ZM88.7229 5.728L89.4367 5.49775L88.7307 3.30932L88.0106 5.49313L88.7229 5.728ZM86.2749 1.684H91.3069V0.183998H86.2749V1.684ZM90.5943 1.16787L97.8363 23.2339L99.2615 22.7661L92.0195 0.700124L90.5943 1.16787ZM98.5489 22.25H94.2989V23.75H98.5489V22.25ZM95.0129 22.7705L93.4829 18.0105L92.0549 18.4695L93.5849 23.2295L95.0129 22.7705ZM92.7689 17.49H84.5749V18.99H92.7689V17.49ZM83.8624 18.0059L82.2984 22.7659L83.7234 23.2341L85.2874 18.4741L83.8624 18.0059ZM83.0109 22.25H78.7609V23.75H83.0109V22.25ZM79.4709 23.2418L86.9849 1.17576L85.5649 0.692238L78.0509 22.7582L79.4709 23.2418ZM85.5949 15.964H91.7829V14.464H85.5949V15.964ZM92.4967 14.9837L89.4367 5.49775L88.0091 5.95825L91.0691 15.4443L92.4967 14.9837ZM88.0106 5.49313L84.8826 14.9791L86.3072 15.4489L89.4352 5.96287L88.0106 5.49313ZM122.62 11.712L122.033 11.2449L122.62 11.712ZM118.812 14.024L118.623 13.2982L117.609 13.562L118.186 14.4367L118.812 14.024ZM124.728 23V23.75H126.121L125.354 22.5873L124.728 23ZM119.492 23L118.839 23.369L119.054 23.75H119.492V23ZM114.63 14.398L115.283 14.029L115.068 13.648H114.63V14.398ZM111.57 14.398V13.648H110.82V14.398H111.57ZM111.57 23V23.75H112.32V23H111.57ZM107.558 23H106.808V23.75H107.558V23ZM107.558 0.933998V0.183998H106.808V0.933998H107.558ZM121.804 2.804L121.315 3.37284L121.321 3.37792L121.804 2.804ZM118.676 10.726L119.171 11.2895L119.181 11.281L118.676 10.726ZM118.778 5.422L118.248 5.9524L118.257 5.96124L118.778 5.422ZM111.57 4.402V3.652H110.82V4.402H111.57ZM111.57 11.712H110.82V12.462H111.57V11.712ZM123.196 7.7C123.196 9.11269 122.801 10.2807 122.033 11.2449L123.207 12.1791C124.207 10.922 124.696 9.41531 124.696 7.7H123.196ZM122.033 11.2449C121.27 12.2042 120.154 12.8998 118.623 13.2982L119.001 14.7498C120.78 14.2868 122.202 13.4411 123.207 12.1791L122.033 11.2449ZM118.186 14.4367L124.102 23.4127L125.354 22.5873L119.438 13.6113L118.186 14.4367ZM124.728 22.25H119.492V23.75H124.728V22.25ZM120.145 22.631L115.283 14.029L113.977 14.767L118.839 23.369L120.145 22.631ZM114.63 13.648H111.57V15.148H114.63V13.648ZM110.82 14.398V23H112.32V14.398H110.82ZM111.57 22.25H107.558V23.75H111.57V22.25ZM108.308 23V0.933998H106.808V23H108.308ZM107.558 1.684H115.718V0.183998H107.558V1.684ZM115.718 1.684C118.211 1.684 120.043 2.27952 121.315 3.37281L122.293 2.23518C120.664 0.835148 118.439 0.183998 115.718 0.183998V1.684ZM121.321 3.37792C122.561 4.42063 123.196 5.83237 123.196 7.7H124.696C124.696 5.4423 123.903 3.59004 122.287 2.23008L121.321 3.37792ZM115.344 12.462C116.914 12.462 118.234 12.1133 119.171 11.2894L118.181 10.1626C117.623 10.6533 116.72 10.962 115.344 10.962V12.462ZM119.181 11.281C120.098 10.4471 120.548 9.35521 120.548 8.074H119.048C119.048 8.96878 118.75 9.64492 118.172 10.171L119.181 11.281ZM120.548 8.074C120.548 6.79842 120.151 5.70604 119.299 4.88276L118.257 5.96124C118.765 6.45263 119.048 7.12825 119.048 8.074H120.548ZM119.308 4.89167C118.438 4.02141 117.194 3.652 115.718 3.652V5.152C116.962 5.152 117.758 5.46259 118.248 5.95233L119.308 4.89167ZM115.718 3.652H111.57V5.152H115.718V3.652ZM110.82 4.402V11.712H112.32V4.402H110.82ZM111.57 12.462H115.344V10.962H111.57V12.462Z" fill="#1F1D10"/>
</svg>
